<svg xmlns="http://www.w3.org/2000/svg" fill="none" viewBox="0 0 64 64">
  <g clip-path="url(#clip0_86_3457)">
    <path fill="#422873" d="m11.32 23.1 6.65-.01v17.66c-2.24.01-4.5-.02-6.73 0-.31-.42-.71-.85-1.04-1.27q-1.18-1.5-2.38-2.96c-.37-.47-.92-1.1-1.24-1.58-.07.4-.04 1.5-.04 1.97l.03 3.84H.02V27.4c0-.6-.06-4.07.03-4.3h5.08c1.17 1.38 2.3 2.85 3.43 4.27l1.75 2.2c.36.45.72.86 1.05 1.32.06-1.05.03-2.3.03-3.35 0-1.46.02-2.99-.07-4.45" style="fill:#422873;fill:color(display-p3 .2588 .1569 .451);fill-opacity:1"/>
    <path fill="#422873" d="M38.16 23.19c3.28 0 5.63.2 8.12 2.62a8.6 8.6 0 0 1 2.6 6.08 8.9 8.9 0 0 1-4.4 7.78c-2.85 1.59-6.94 1.1-10.15 1.09V31.6c0-2.78-.03-5.64 0-8.41zm1.72 5.24c0 2.34-.03 4.78 0 7.12 1.06-.1 1.71-.26 2.5-1.04 1.74-1.96 1.26-5.3-1.48-5.96a4 4 0 0 0-1.02-.12" style="fill:#422873;fill:color(display-p3 .2588 .1569 .451);fill-opacity:1"/>
    <path fill="#422873" d="M50.8 23.16h6.72v8.38c0 1.22-.02 2.5.01 3.71 2.13.01 4.33.03 6.46 0 .03 1.8 0 3.69 0 5.5-1.45.03-3 0-4.45 0h-8.76z" style="fill:#422873;fill:color(display-p3 .2588 .1569 .451);fill-opacity:1"/>
    <path fill="#e6312e" d="M26.29 28.76c.99-.1 2.56.17 3.43.63a4.7 4.7 0 0 1 2.47 2.72c.37 1.19.3 2.72-.3 3.83a4.3 4.3 0 0 1-2.24 2c-.58.18-1.55.27-2.12 0-.32-.17-.46-.48-.55-.8-.3.35-.57.65-1 .81-.6.2-1.47.19-2.05-.06-1.43-.61-1.25-2.77-.74-3.93a3.6 3.6 0 0 1 1.85-1.82c.65-.22 1.6-.3 2.2.16.12.1.31.32.36.35.1-.11.22-.38.29-.53h1.56c-.11.92-.48 2.02-.67 2.94-.1.48-.34 1.15-.29 1.63.19.3.89.04 1.12-.13 1.4-1 1.74-3.3.8-4.72-.61-.92-1.56-1.33-2.6-1.55a6 6 0 0 0-4.13.75c-3.33 2.13-3.1 7.53 1.17 8.35a6.6 6.6 0 0 0 5.24-1.12q.42.53.77 1.1a9 9 0 0 1-3.57 1.47c-1.98.22-3.89-.06-5.5-1.32-2.56-2.03-2.47-5.96-.48-8.34 1.32-1.58 2.98-2.21 4.98-2.42m-.27 4.5c-1.1.4-1.5 2.07-1.29 3.11.3.4.53.52 1.03.4.57-.21.86-.62 1.03-1.2.26-.85.77-2.46-.77-2.3" style="fill:#e6312e;fill:color(display-p3 .902 .1922 .1804);fill-opacity:1"/>
  </g>
  <defs>
    <clipPath id="clip0_86_3457">
      <path fill="#fff" d="M0 0h64v64H0z" style="fill:#fff;fill-opacity:1"/>
    </clipPath>
  </defs>
</svg>
