<svg xmlns="http://www.w3.org/2000/svg" fill="none" viewBox="0 0 314 64">
  <g fill="#1f1a17" clip-path="url(#clip0_62_1674)">
    <path fill-rule="evenodd" d="M33.17.32c18 0 32.75 14.27 32.75 31.79 0 17.56-14.75 31.85-32.75 31.85-18.03 0-32.7-14.3-32.7-31.85C.47 14.59 15.14.3 33.17.3m-4.52 59.31 13.96-23.56h-9.44l4.7-7.91h22.16l-4.69 7.94-8.02-.03L33.17 60c15.76 0 28.67-12.55 28.67-27.88 0-15.28-12.9-27.81-28.67-27.81-1.14 0-2.3.06-3.37.2L15.72 28.17h17.45l-4.72 7.91H6.3l18.06-30.4C12.87 9.29 4.54 19.8 4.54 32.1c0 13.83 10.46 25.4 24.11 27.52" clip-rule="evenodd" style="fill:#1f1a17;fill:color(display-p3 .1216 .102 .0902);fill-opacity:1"/>
    <path fill-rule="evenodd" d="M77.94 47.57h18.83l1.11-5H85.56l5.85-26.74h-6.55z" clip-rule="evenodd" style="fill:#1f1a17;fill:color(display-p3 .1216 .102 .0902);fill-opacity:1"/>
    <path fill-rule="evenodd" d="M118.3 22.52c0 3.04-3.28 4.36-5.66 5-.85-1.14-1.74-2.64-1.74-4 0-2.41 1.78-3.78 4.12-3.78 1.59 0 3.28.63 3.28 2.78m-2.58 19.27a10 10 0 0 1-5.51 1.6c-3.1 0-5.7-1.27-5.7-4.6 0-3.23 2.7-4.54 5.41-5.54zm3.93 5.78h7.02l-3.8-5.36c3.23-3.18 5.06-7.51 5.62-11.88h-5.71c-.1 2.78-1.26 5.38-2.85 7.65l-4.72-6.6c4.35-1.54 8.5-3.82 8.5-8.86 0-5.01-5.13-7.24-9.02-7.24-4.96 0-9.77 2.59-9.77 8.05 0 2.82.98 4.19 2.3 5.92-4.78 1.4-9 4.59-9 9.86 0 6.42 5.62 9 11.37 9 3.05 0 6.78-.9 8.9-2.36z" clip-rule="evenodd" style="fill:#1f1a17;fill:color(display-p3 .1216 .102 .0902);fill-opacity:1"/>
    <path fill-rule="evenodd" d="M127.61 20.83h8.73l-5.93 26.74h6.83l5.93-26.74h8.24l1.08-5h-23.76z" clip-rule="evenodd" style="fill:#1f1a17;fill:color(display-p3 .1216 .102 .0902);fill-opacity:1"/>
    <path d="M166.3 15.84h18.01l-1.13 5h-11.4l-1.74 7.82h10.9l-1.03 5h-10.94l-3 13.92h-6.55z" style="fill:#1f1a17;fill:color(display-p3 .1216 .102 .0902);fill-opacity:1"/>
    <path d="M188.84 14.06h6.27l-1.3 5.82h-6.28zm-2.29 10.1h6.27l-5.15 23.42h-6.26z" style="fill:#1f1a17;fill:color(display-p3 .1216 .102 .0902);fill-opacity:1"/>
    <path d="M196.9 27.52c.28-1.41.51-2.64.6-3.36h6.13l-.41 2.27h.08a10.4 10.4 0 0 1 6.83-2.82c4.73 0 7.86 2.86 7.86 7.5 0 1.78-.47 3.65-.8 5.1l-2.52 11.37h-6.27l2.34-11.05c.33-1.6.71-3.2.71-4.92 0-1.95-1.41-3.27-3.42-3.27-4.35 0-5.94 3.96-6.74 7.46l-2.56 11.78h-6.28z" style="fill:#1f1a17;fill:color(display-p3 .1216 .102 .0902);fill-opacity:1"/>
    <path d="M228.25 43.67c4.67 0 6.12-3.14 7.1-6.92h-2.2c-3.04 0-8.09.5-8.09 4.46 0 1.64 1.6 2.46 3.19 2.46m6.12.32h-.09c-2.16 2.63-4.31 4.13-7.77 4.13-4.35 0-7.43-2.36-7.43-6.68 0-7.73 8.88-8.32 14.78-8.32h2.2c.18-.65.18-1.33.18-2 0-2.37-2.62-3.06-4.82-3.06-2.76 0-5.42.7-7.9 1.82l.89-4.86c2.66-.9 5.37-1.4 8.18-1.4 4.82 0 9.36 1.72 9.36 7.22 0 3.14-2.39 12.32-2.95 16.74h-5.28z" style="fill:#1f1a17;fill:color(display-p3 .1216 .102 .0902);fill-opacity:1"/>
    <path d="M247.57 27.52c.28-1.41.51-2.64.6-3.36h6.13l-.42 2.27h.1a10.4 10.4 0 0 1 6.82-2.82c4.72 0 7.86 2.86 7.86 7.5 0 1.78-.46 3.65-.8 5.1l-2.52 11.37h-6.27l2.34-11.05c.33-1.6.7-3.2.7-4.92 0-1.95-1.4-3.27-3.4-3.27-4.36 0-5.95 3.96-6.75 7.46l-2.57 11.78h-6.27z" style="fill:#1f1a17;fill:color(display-p3 .1216 .102 .0902);fill-opacity:1"/>
    <path d="M289.62 29.52a8.7 8.7 0 0 0-4.58-1.19c-5 0-7.81 4.56-7.81 8.97 0 3.04 1.03 6.1 5.33 6.1 1.54 0 3.46-.42 5.1-1.19l-.7 4.83c-1.92.9-3.98 1.08-6.03 1.08-6.23 0-10.25-4.04-10.25-10.1 0-8.18 5.56-14.4 14.21-14.4 2.35 0 4.59.4 6.27.9z" style="fill:#1f1a17;fill:color(display-p3 .1216 .102 .0902);fill-opacity:1"/>
    <path d="M306.52 33.57q.14-.8.13-1.59c0-2.5-1.35-3.92-3.97-3.92-3.88 0-5.57 2.28-6.78 5.5zm-11.46 4.18c0 4.32 2.38 5.92 6.68 5.92 2.57 0 5.06-.64 7.4-1.68l-.8 4.82c-2.44.72-5.1 1.31-7.67 1.31-6.93 0-11.6-3.27-11.6-10.23 0-7.28 5.8-14.28 13.7-14.28 5.94 0 9.87 2.96 9.87 8.91 0 1.78-.24 3.5-.61 5.23z" style="fill:#1f1a17;fill:color(display-p3 .1216 .102 .0902);fill-opacity:1"/>
  </g>
  <defs>
    <clipPath id="clip0_62_1674">
      <path fill="#fff" d="M0 0h313.96v64H0z" style="fill:#fff;fill-opacity:1"/>
    </clipPath>
  </defs>
</svg>
